<svg width="260" height="260" viewBox="0 0 260 260" fill="none" xmlns="http://www.w3.org/2000/svg">
<path d="M9.62461 157.282C10.1668 155.249 10.7091 153.012 11.3191 150.708C11.9969 148.132 12.5391 145.895 13.0813 143.727C14.1658 139.185 15.318 134.509 16.6058 129.764C17.8259 125.02 19.1137 120.275 20.4692 115.802C21.8248 111.193 23.316 106.787 24.8749 102.585C26.4338 98.4502 28.196 94.5868 30.0261 91.1301C31.2461 88.8256 32.6017 86.7922 34.025 84.8944C35.5162 82.9288 37.0751 81.1666 38.7018 79.6077C40.3962 77.981 42.2263 76.5576 44.0563 75.3376C45.9541 74.1176 47.9197 73.1009 49.9531 72.2875C50.9698 71.8809 52.0542 71.4742 53.0709 71.2031C54.1554 70.932 55.1721 70.6608 56.2565 70.4575C57.341 70.2542 58.4254 70.1186 59.4421 70.0508C60.5266 69.9831 61.6111 69.9831 62.6955 70.0508C63.78 70.1186 64.8644 70.1864 65.9489 70.3897C67.0334 70.5931 68.1178 70.7964 69.1345 71.0675C70.1512 71.3386 71.2357 71.7453 72.2523 72.152C73.269 72.5587 74.2857 73.0331 75.2346 73.5753C76.8613 74.4565 78.4202 75.5409 79.9114 76.6932C81.3347 77.8454 82.7581 79.201 83.9781 80.6921C85.1981 82.1155 86.3504 83.6744 87.3671 85.3689C88.3837 87.0633 89.2649 88.8256 90.0104 90.7234C91.0271 93.299 91.9082 96.2135 92.586 99.3313C93.2638 102.449 93.8738 105.77 94.3483 109.295C94.8227 112.752 95.2294 116.344 95.5683 120.004C95.9072 123.935 96.1783 127.46 96.5172 130.984C96.7205 133.966 96.9917 136.881 97.2628 139.863C97.5339 142.778 97.805 145.489 98.0761 148.064C98.3472 150.572 98.6861 152.877 99.0928 154.842C99.4317 156.808 99.9062 158.435 100.313 159.79C100.448 160.129 100.584 160.468 100.719 160.671C100.855 160.942 100.991 161.146 101.126 161.349C101.262 161.485 101.33 161.62 101.397 161.688C101.465 161.756 101.465 161.756 101.533 161.824L101.601 161.891H101.668H101.736C101.804 161.891 101.872 161.891 101.94 161.891C102.007 161.891 102.007 161.891 102.075 161.891C102.143 161.891 102.211 161.891 102.278 161.824C102.346 161.824 102.482 161.756 102.55 161.756C102.888 161.62 103.227 161.485 103.566 161.213C103.905 161.01 104.312 160.671 104.651 160.332C105.057 159.993 105.396 159.519 105.803 159.045C106.21 158.57 106.548 158.028 106.887 157.418C108.175 155.249 109.395 152.673 110.48 149.894C111.632 147.115 112.649 144.065 113.665 140.88C114.682 137.694 115.631 134.305 116.512 130.849C117.393 127.46 118.274 124.003 119.155 120.546C119.562 118.919 119.969 117.361 120.375 115.734C120.782 114.175 121.189 112.616 121.663 110.854C122.07 109.227 122.544 107.668 122.951 106.109C123.358 104.55 123.832 102.991 124.374 101.432C125.391 98.1791 126.475 95.2646 127.763 92.689C129.051 90.0456 130.474 87.7411 132.033 85.7078C133.66 83.6066 135.49 81.7766 137.523 80.2177C139.557 78.6588 141.794 77.3032 144.301 76.2187C145.928 75.4731 147.555 74.8631 149.317 74.3887C151.079 73.9142 152.842 73.5076 154.739 73.1687C156.569 72.8298 158.467 72.6264 160.501 72.4231C162.466 72.2875 164.567 72.152 166.872 72.0842C171.82 71.9486 178.123 71.9486 183.206 72.0164C185.24 72.0164 187.273 72.0164 189.307 72.0164H256.747C257.628 72.0164 258.441 72.3553 259.051 72.9653C259.661 73.5753 260 74.3209 260 75.2698C260 76.4221 259.39 78.9977 258.644 81.7088C257.492 85.64 256.001 90.1812 255.459 91.469C254.645 93.3668 253.832 95.129 253.019 96.5524C252.138 98.1113 251.121 99.3313 249.969 100.009C249.698 100.145 249.359 100.28 249.02 100.348C248.681 100.416 248.342 100.484 248.071 100.484L221.705 100.551C220.824 100.551 220.078 100.619 219.468 100.687C218.926 100.755 218.452 100.89 218.045 101.026C217.774 101.094 217.503 101.229 217.299 101.365C217.096 101.5 216.893 101.636 216.689 101.839C216.418 102.11 216.079 102.585 215.74 103.127C215.401 103.737 215.063 104.483 214.724 105.364C214.317 106.313 213.91 107.465 213.504 108.753C213.097 110.04 212.69 111.464 212.216 112.955C211.606 114.988 211.064 117.157 210.454 119.394C209.844 121.698 209.301 124.003 208.827 126.307C208.285 128.612 207.81 131.052 207.268 133.56C206.658 136.339 206.184 138.711 205.709 141.083C204.896 145.014 204.082 149.013 203.269 152.673C202.456 156.469 201.575 160.332 200.626 164.264C199.677 168.127 198.66 171.99 197.576 175.718C196.491 179.514 195.271 183.174 193.983 186.631C193.78 187.241 193.306 187.783 192.831 188.19C192.289 188.596 191.679 188.8 191.001 188.8H167.211C166.33 188.8 165.516 188.461 164.906 187.851C164.296 187.241 163.957 186.495 163.957 185.546C163.957 185.411 164.025 185.139 164.161 184.733L164.432 183.919C164.635 183.309 164.906 182.699 165.177 181.954C165.584 181.005 165.991 179.92 166.397 178.836C167.482 175.922 168.431 173.075 169.38 170.16C170.328 167.246 171.142 164.331 171.887 161.349C172.972 157.079 174.056 152.673 175.005 148.268C175.954 143.93 176.903 139.389 177.852 134.915C178.462 132.136 179.004 129.357 179.479 126.985C180.021 124.41 180.563 121.834 181.173 119.191C181.783 116.615 182.325 114.107 182.935 111.667C183.545 109.295 184.155 106.855 184.901 104.483C185.172 103.534 185.375 102.788 185.579 102.246C185.714 101.771 185.918 101.161 186.189 100.348H185.172H182.664C178.801 100.348 173.717 100.348 169.854 100.416C168.702 100.416 167.55 100.484 166.465 100.551C165.448 100.619 164.364 100.619 163.347 100.755C161.246 100.89 159.552 101.094 158.196 101.365C156.976 101.636 156.027 101.975 155.282 102.517C154.604 103.059 153.994 103.805 153.384 104.889C152.774 106.109 152.164 107.668 151.554 109.769C151.147 110.989 150.808 112.277 150.401 113.7C149.995 115.124 149.588 116.547 149.249 117.971C148.978 119.123 148.571 120.682 148.097 122.444C147.69 124.071 147.284 125.697 146.877 127.392C144.979 134.983 143.014 142.913 140.574 150.504C138.133 158.163 135.219 165.416 131.491 171.719C130.271 173.753 128.983 175.583 127.628 177.277C126.204 178.972 124.713 180.598 123.087 181.954C121.46 183.377 119.698 184.665 117.935 185.749C116.105 186.834 114.208 187.715 112.31 188.461C111.293 188.867 110.209 189.138 109.192 189.41C108.107 189.681 107.091 189.884 106.006 190.02C104.922 190.155 103.905 190.291 102.821 190.291C101.736 190.358 100.652 190.291 99.635 190.223C98.5506 190.155 97.4661 190.02 96.3817 189.816C95.2972 189.613 94.2127 189.342 93.196 189.003C92.1794 188.664 91.1627 188.325 90.146 187.851C89.1293 187.376 88.1804 186.902 87.2315 186.359C85.6726 185.478 84.1814 184.394 82.8259 183.242C81.4703 182.089 80.1825 180.734 79.0302 179.31C77.878 177.887 76.8613 176.396 75.9802 174.769C75.0991 173.143 74.2857 171.448 73.6079 169.618C72.7946 167.314 72.049 164.738 71.5068 161.959C70.8968 159.18 70.4223 156.198 70.0156 153.012C69.609 149.894 69.2701 146.641 68.999 143.32C68.6601 139.66 68.3889 136.474 68.1856 133.289C67.9145 129.832 67.6434 126.375 67.3723 123.596C67.1012 120.546 66.7623 117.496 66.4234 114.514C66.0845 111.667 65.6778 109.091 65.2711 106.923C64.7967 104.754 64.3222 102.856 63.7122 101.365C63.5766 100.958 63.3733 100.619 63.17 100.28C62.9666 99.9413 62.8311 99.6702 62.6277 99.3991C62.4922 99.1958 62.2888 98.9924 62.1533 98.8569C62.0177 98.7213 61.8822 98.6535 61.7466 98.5858H61.6788H61.6111H61.5433C61.4755 98.5858 61.5433 98.5858 61.4755 98.5858H61.3399C61.2722 98.5858 61.2044 98.5858 61.1366 98.5858C61.0688 98.5858 61.001 98.6535 60.8655 98.6535C60.7977 98.6535 60.6621 98.7213 60.5944 98.7213C60.1877 98.8569 59.781 99.128 59.3066 99.4669C58.8321 99.8058 58.4254 100.212 57.951 100.687C57.4765 101.229 56.9343 101.839 56.4599 102.517C55.9854 103.195 55.5109 104.008 55.0365 104.821C53.6809 107.329 52.3931 110.379 51.1053 113.768C49.8175 117.225 48.5975 121.021 47.4453 125.02C46.2252 129.154 45.073 133.356 43.9885 137.626C42.9041 141.693 41.8196 146.167 40.7351 150.504C40.0574 153.216 39.4473 155.859 38.9051 157.96C38.2951 160.332 37.6851 162.705 37.0751 165.009C36.4651 167.246 35.8551 169.415 35.245 171.516C34.635 173.617 34.025 175.583 33.415 177.345C33.1439 178.09 32.8728 178.904 32.5339 179.853C32.2628 180.734 31.9239 181.479 31.6528 182.293C31.3816 183.106 31.0428 183.919 30.7716 184.597C30.4327 185.478 30.1616 186.156 29.9583 186.698C29.6872 187.308 29.2805 187.851 28.806 188.19C28.2638 188.528 27.6538 188.732 26.976 188.732H3.18561C2.30448 188.732 1.49114 188.393 0.948905 187.783C0.338895 187.173 0 186.359 0 185.546C0 185.478 0.203337 184.529 0.61001 183.445C0.813347 182.903 1.08446 182.225 1.42336 181.547C3.11783 177.887 4.67675 173.82 6.03233 169.618C7.3879 165.416 8.60793 161.213 9.62461 157.215V157.282Z" fill="white"/>
</svg>
